<?xml version="1.0" standalone="no"?><!DOCTYPE svg PUBLIC "-//W3C//DTD SVG 1.1//EN" "http://www.w3.org/Graphics/SVG/1.1/DTD/svg11.dtd"><svg t="1675342948097" class="icon" viewBox="0 0 1024 1024" version="1.1" xmlns="http://www.w3.org/2000/svg" p-id="8550" xmlns:xlink="http://www.w3.org/1999/xlink" width="200" height="200"><path d="M682.666667 149.333333a21.333333 21.333333 0 0 1 21.333333-21.333333h256a21.333333 21.333333 0 0 1 0 42.666667h-256a21.333333 21.333333 0 0 1-21.333333-21.333334z m277.333333 362.666667h-256a21.333333 21.333333 0 0 0 0 42.666667h256a21.333333 21.333333 0 0 0 0-42.666667z m0 384H64a21.333333 21.333333 0 0 0 0 42.666667h896a21.333333 21.333333 0 0 0 0-42.666667zM42.666667 757.333333V138.666667a53.393333 53.393333 0 0 1 53.333333-53.333334h448a53.393333 53.393333 0 0 1 53.333333 53.333334v618.666666a53.393333 53.393333 0 0 1-53.333333 53.333334H96a53.393333 53.393333 0 0 1-53.333333-53.333334z m512-288H469.333333v128h85.333334z m0-170.666666H469.333333v128h85.333334zM170.666667 469.333333H85.333333v128h85.333334z m0-170.666666H85.333333v128h85.333334z m-74.666667 469.333333h74.666667V640H85.333333v117.333333a10.666667 10.666667 0 0 0 10.666667 10.666667z m330.666667 0V128H213.333333v640z m128-10.666667V640H469.333333v128h74.666667a10.666667 10.666667 0 0 0 10.666667-10.666667z m-10.666667-629.333333H469.333333v128h85.333334V138.666667a10.666667 10.666667 0 0 0-10.666667-10.666667z m-458.666667 10.666667v117.333333h85.333334V128H96a10.666667 10.666667 0 0 0-10.666667 10.666667z" fill="#F87171" p-id="8551"></path></svg>